<?xml version="1.0" standalone="no"?>
<!DOCTYPE svg PUBLIC "-//W3C//DTD SVG 20010904//EN"
 "http://www.w3.org/TR/2001/REC-SVG-20010904/DTD/svg10.dtd">
<svg version="1.0" xmlns="http://www.w3.org/2000/svg"
 width="200.000000pt" height="200.000000pt" viewBox="0 0 200.000000 200.000000"
 preserveAspectRatio="xMidYMid meet">
<metadata>
Created by potrace 1.16, written by Peter Selinger 2001-2019
</metadata>
<g transform="translate(0.000000,200.000000) scale(0.100000,-0.100000)"
fill="#000000" stroke="none">
<path d="M1196 1962 c1 -20 2 -221 3 -447 l2 -410 31 95 c17 52 35 113 40 135
13 54 60 210 112 375 24 74 45 141 47 148 4 12 -201 140 -226 141 -5 1 -10
-16 -9 -37z"/>
<path d="M876 1930 c-161 -26 -285 -75 -435 -173 -180 -118 -330 -328 -390
-547 -18 -62 -21 -104 -21 -251 0 -160 2 -185 26 -265 77 -267 269 -492 531
-623 106 -53 246 -91 228 -61 -3 5 -17 10 -30 10 -13 0 -27 5 -30 10 -4 6 -10
8 -14 6 -12 -8 -202 89 -233 117 -15 14 -43 38 -62 52 -62 47 -145 159 -190
256 -59 128 -80 220 -80 349 0 145 23 240 91 379 48 98 67 125 137 195 93 94
169 146 278 194 119 51 200 65 360 59 l137 -4 3 126 c3 143 2 157 -18 165 -29
11 -230 15 -288 6z"/>
<path d="M745 1591 c-197 -71 -387 -245 -466 -428 -47 -107 -59 -159 -65 -273
-8 -130 9 -238 52 -343 119 -295 417 -497 734 -497 180 0 341 58 495 177 93
71 156 149 210 258 59 119 76 187 82 322 5 94 2 129 -17 209 -21 92 -76 218
-120 274 -11 14 -34 45 -52 69 -18 25 -39 46 -45 49 -19 6 -16 -63 3 -79 26
-22 83 -145 100 -217 24 -101 15 -284 -19 -380 -27 -77 -102 -202 -121 -202
-6 0 -17 -9 -24 -20 -21 -34 -155 -134 -212 -159 -30 -13 -65 -28 -77 -34 -12
-5 -28 -7 -37 -4 -8 3 -16 1 -18 -5 -2 -6 -45 -13 -96 -16 -106 -6 -103 -9
-72 90 11 34 20 70 20 78 0 8 36 128 80 265 l80 250 0 211 0 210 -156 83 c-86
45 -159 79 -162 76 -4 -3 -5 -285 -3 -626 l3 -619 -21 0 -22 0 4 308 c3 169 2
315 -2 325 -6 18 -294 187 -317 187 -16 0 -19 -553 -3 -581 7 -15 6 -17 -6
-13 -8 3 -37 52 -64 107 -102 209 -106 400 -12 602 71 152 244 301 394 338 15
4 27 12 27 17 0 14 -18 12 -75 -9z"/>
</g>
</svg>
